<?xml version="1.0" encoding="UTF-8"?>
<svg id="Layer_1" xmlns="http://www.w3.org/2000/svg" version="1.1" viewBox="0 0 716 625">
  <!-- Generator: Adobe Illustrator 30.4.0, SVG Export Plug-In . SVG Version: 2.1.4 Build 226)  -->
  <defs>
    <style>
      .st0 {
        fill: #3d3224;
      }
    </style>
  </defs>
  <path class="st0" d="M701.3549805,484.6789856c-7.7340088-12.3669739-17.0499878-21.4269714-27.9469604-27.1799927-10.8980103-5.7519836-24.960022-11.3609924-42.1860352-16.8249817-12.3039551-4.026001-21.7959595-7.4770203-28.4760132-10.3529968-6.6799927-3.1640015-12.3039551-7.4790039-16.8729858-12.9430237-4.5709839-5.4639893-6.8549805-12.0390015-6.8549805-22s5.7399902-20.9449768,17.9290161-20.9449768c13.7559814,0,16.7479858,13.0950012,17.4969482,19.0049744.75,5.9089966.5900269,17.3300171-2.2069702,32.1370239l92.2810059-12.5110168c1.7579956-20.7080078-1.2299805-38.3959961-8.9639893-53.0629883-7.3829956-14.6669922-19.1589966-25.8850098-35.3309937-33.651001-15.8190308-7.7640076-35.5060425-11.6480103-59.0599976-11.6480103-13.3040161,0-25.5550537,1.2680054-36.7700195,3.7820129.0360107-.0420227.0739746-.085022.0769653-.0939941-11.7419434,2.7099915-17.4369507,2.039978-13.657959-12.7700195,2.7219849-10.6659851,4.7769775-23.7309875,13.117981-31.8599854,10.6710205-10.401001,29.1779785-7.3450012,41.3959961-1.9860229,10.1539917,4.4530029,29.1660156,18.5870056,47.6970215,18.5870056,20.526001,0,41.9539795-8.7649841,50.2080078-22.6409912,9.2259521-15.5039978,9.7219849-32.9909973,9.7219849-60.4860077-23.1340332,16.4309998-50.9219971,5.8820038-84.3540039,23.7260132-21.0410156,11.2350006-28.184021,18.6009979-51.0109863,22.3559875-9.2560425,1.5279999-20.19104,4.9860077-20.19104,4.9860077,10.5910034-13.9649963,18.0760498-21.9990082,30.1270142-33.1849976,16.15802-14.9990082,35.9790039-28.5559998,60.8690186-21.8470001,30.6450195,8.2659912,64.559021-5.4960022,64.559021-44.4550018v-61.9701996s-18.1610107,3.1691971-39.8670044,28.8801956c-13.5710449,16.0750046-16.835022,38.5730057-30.4460449,53.6189957-7.8070068,8.6370087-20.8029785,9.8790131-33.3919678,18.2450104l7.9680176-12.5160065c17.7299805-31.7830048,16.3709717-67.4160004,16.3709717-67.4160004,9.0709839-1.3949966,15.8359985-12.3310013,18.1409912-17.0939941,10.4660034-21.6302032,26.1650391-21.6302032,45.7009888-44.3062019,13.6589966-15.8540001,13.6060181-30.0020008,13.6060181-42.9100018,0-14.4780399-6.585022-13.7360368-19.0130005-12.5590369-7.9940186.756997-11.25-.8289995-18.4450073-.305-8.6060181.625997-11.0459595,11.7940372-13.6060181,22.9810374-6.1049805,26.6879978-11.6869507,39.8570004-18.8389893,51.1949978,0,0,7.3280029-23.461998,9.2449951-46.3989983,1.3790283-16.5030003-.3939819-27.777037-10.8589478-27.9080369-8.6340332-.108-13.2130127,1.308997-19.8850098,1.308997s-12.0350342-1.5699965-20.5390015-1.5699965c-11.9050293,0-15.618042,10.0970369-9.4630127,35.4530369,4.0120239,16.5270004,17.3129883,37.8949966,17.3129883,37.8949966,0,0-15.6419678-10.7389984-26.7319946-42.8219967-6.0599976-17.5310001-2.2230225-30.2650373-17.617981-30.0020373-6.9330444.118-12.1660156.871997-18.9680176.871997-7.151001,0-12.4589844-2.458996-19.2319946-1.046997-11.2930298,2.3539971-10.5960083,39.5080367,20.9760132,63.056037,20.7649536,15.4870033,41.4699707,18.2290001,54.0289917,40.2072029,3.367981,5.8939972,10.1599731,14.1289978,18.2719727,14.4339981,0,0,.8049927,25.8449936-12.2909546,53.314003-2.7320557,5.2119904-7.4620361,14.0029907-11.7060547,18.5299988.6740112-6.8090057,2.2220459-18.0879974-.9719849-33.8619995-7.6289673-37.7870026-28.0150146-62.8412018-64.0159912-80.3302002-23.0159912-11.1350021-37.7309875-24.7960014-37.7309875-24.7960014,0,58.1591988-.7799988,75.0891991,51.4410095,95.7902031,14.6129761,5.7949982,26.0689697,5.6879883,33.0929565,12.8119965,12.1920166,12.3769989,5.7440186,39.6860046-1.7359619,50.6779938-9.9110107,14.5610046-21.9349976,24.6139984-31.7470093,40.2880096,3.2940063-6.7949982,4.9790039-22.7980042,5.2669678-30.779007.9230347-27.6380005-7.5689697-64.1259918-56.3179626-84.1689911v55.4889984c0,28.4229889,21.2120056,36.9809875,27.8659973,47.6809998,9.0549927,14.5599976,11.7860107,29.5469818,9.8610229,46.0079803-2.1940308,18.7590027-8.2080078,38.0340271-17.8860168,54.1530151-5.6340027,9.3840027-10.0800171,19.5450134-13.230011,30.1329956-4.3999939,10.6360168-6.6119995,22.5620117-6.6119995,35.7910156,0,22.7219849,4.0429993,40.696991,12.1289978,53.927002,8.0849915,12.9419861,17.5769958,22.4329834,28.4740295,28.4719849,11.25,6.0400085,25.6629639,11.7929993,43.2409668,17.2569885,11.9520264,3.4510193,21.09198,6.6150208,27.4199829,9.4899902,6.3280029,2.8770142,11.6010132,6.9030151,15.8190308,12.0800171,4.5709839,4.8889771,6.8549805,10.6480103,6.8549805,19.8450317,0,9.1969604-4.8380127,18.9719849-19.3889771,18.9719849-14.5510254,0-17.710022-11.0360107-18.5780029-17.677002-.8989868-6.8809814,0-16.6820068,2.1090088-29.3359985l-95.9720154,12.5109863c0,19.5570068,4.5700073,36.526001,13.7099915,50.9069824,9.1409912,14.092041,21.7960205,24.8779907,37.96698,32.3550415,16.5230103,7.4779663,35.8569946,11.2160034,58.0050049,11.2160034s41.4819946-3.4500122,58.0050049-10.3530273c16.5230103-7.1900024,29.3540039-17.5449829,38.4940186-31.0620117,9.1409912-13.8039551,13.710022-30.3429565,13.710022-49.6119995,0-20.7089844-3.8670044-37.1019897-11.6010132-49.1809998h.0039673Z"/>
  <path class="st0" d="M469.1679993,318.1499939s-.0849915-2.9979858-.0849915-4.446991c0-41.8300171-23.9500122-57.4599915-47.0030212-74.1470032-16.0839844-11.6419983,2.1270142-23.9779968,14.4160156-32.3430023,21.2109985-14.4409943,32.5610046-22.5279999,32.5610046-53.2279968,0-10.0149994-2.309021-19.7709961-10.0970154-27.7740021-6.6359863-6.8149948-14.414978-6.3619995-18.3339844-1.1989975-6.5780029,8.6579971.6260071,15.5129929-5.5360107,23.0060043-6.1619873,7.4929962-11.5310059,2.2129974-17.7259827,10.6689911-6.1950073,8.4570007-2.2929993,16.0930023-6.303009,21.1210022-4.0190125,5.0279999-11.7310181-.151001-18.2170105,12.1110077-3.9190063,7.401001-2.5379944,17.25,1.0140076,24.8679962-8.6950073-6.1370087-13.8040161-8.6600037-25.1560059-13.1159973-23.8389893-9.3580017-14.5599976-33.4670105,5.8250122-43.0220032,17.0329895-7.9779968,31.1659851-12.4620056,33.4419861-27.5149994,3.6679993-24.2210007-18.0579834-23.6940002-27.1799927-13.1830063-9.1210022,10.5009995-15.7160034-2.4729996-27.1719971,2.715004-8.7290039,3.947998-4.9689941,13.1580048-13.3730164,18.2949982-8.4039917,5.1459961-17.0419922-.151001-23.2109985,12.4049988-6.3359985,12.8980103,8.82901,31.2689972,21.1520081,40.8910065-24.2619934-9.9150085-39.3359985-20.701004-39.3359985-46.3130035,0-19.654007,17.6579895-30.1299973,40.7200012-41.6380005,25.4299927-9.7220001,53.0010071-2.572998,75.1549988,2.0199966,22.9200134,4.7520065,39.4440002,2.439003,47.447998-5.6149979,5.928009-5.9589996,6.8710022-13.2080002,6.8710022-27.7659988,0-10.1920013-10.4890137-8.8089981-14.3989868-4.8700027-4.5280151,4.5510025-5.4040222,7.677002-10.4640198,8.7490005-6.8529968,1.4500046-8.3039856-4.6009979-17.1419983-1.6839981-7.4949951,2.4720001-6.9859924,9.1009979-14.1809998,10.4349976-7.3039856,1.3490067-9.1049805-2.548996-18.5839844-1.3330002-11.1230164,1.4330063-12.973999,4.5430069-25.3800049,5.2720032,5.7609863-3.0169983,5.8359985-3.2350006,11.6049805-6.8219986,6.0290222-3.7460022,11.1980286-7.2420044,15.6420288-10.4680023,16.815979-11.3479996,31.4069824-9.4209976,41.7799988-12.4379997,6.1519775-1.7929993,10.8880005-5.0029984,9.5119934-10.1489983-1.3840027-5.163002-12.0979919-3.4869995-5.2350159-7.920002,6.1700134-3.9889984,26.855011.6620026,26.855011-12.9989986,0-6.9390011-9.2210083-4.0650005-9.2210083-9.085001,0-2.8149986,3.1090088-3.8299999,5.8860168-6.3859997,3.3519897-3.0760002,4.7609863-9.2699995,1.7089844-12.9909997-1.0749817-1.3150001-2.7420044-1.986-4.5690002-2.237h-3.9349976c-2.3429871.284-4.519989,1.005-5.7030029,1.751-5.5109863,3.4699998-4.7609863,5.3889999-8.3710022,5.3889999-6.0939941,0-.3670044-8.548-11.821991-6.7209999-11.4549866,1.828-9.9140015,15.5809991-16.6749878,17.6499994-3.3770142,1.0310001-1.8760071-6.5949993-8.7380066-5.6149998-5.1440125.7370005-7.2709961,7.3080006-7.8210144,16.0580006-.9089966,14.3729992.4500122,27.2549992-11.5059814,37.5799999-8.2210083,6.8639984-17.6010132,14.1050034-33.3420105,20.3410034-6.9700012,2.7659988-14.0570068,5.4139938-20.927002,8.2220001,3.6600037-3.1350021,7.8699951-7.727005,9.6879883-13.3180008,3.5350037-10.8540039-1.276001-12.6640015,3.302002-18.6060028,4.7770081-6.2029991,10.9710083-3.1010017,16.53302-11.9350014,4.7609863-7.5690002-4.6350098-15.9829979,14.7579956-23.2909985,18.5140076-6.9810009,14.8209839-27.5240002,2.4809875-27.5240002h-21.6690063c-16.96698,0-36.0099792,12.3879995-40.7539978,40.3300018-4.9689941,29.2839966,19.3930054,48.1159973-.09198,61.4339981-14.6570129,7.4759979-26.8470154,16.9720001-32.6170044,31.9070053-.625-4.6100006-1.2250061-10.0750046-1.2250061-14.1980057,0-12.6220016,8.8120117-15.4550018,7.4949951-24.4400024-1.3169861-8.9839935-6.8119812-8.1539993-8.5209961-14.0799942-1.9840088-6.8810043,1.9089966-10.2750015.1499939-16.9800034-2.1429749-8.1549988-7.9379883-6.1689987-9.196991-11.5239983-1.0499878-4.4500008.3760071-6.5870018,1.552002-11.8000031,1.0249939-4.5339966-.0750122-17.1149979-8.0050049-18.4389992-10.855011-1.7849998-20.6600037,10.6860008-20.6600037,26.3930016v33.8510017c0,53.6139908,30.1480103,31.6639938,34.9670105,76.8120041,0,.1089935.0090027.2099915.0169983.3179932.0580139.871994.1419983,1.7360077.2590027,2.5899963v.0590057c2.526001,19.3529968,18.6839905,34.8820038,39.7120056,45.048996-8.5050049-.4189911-16.8680115-.0670013-22.4869995-2.8670044-7.2109985-3.594986-5.6360168-8.5069885-12.0480042-12.3609924-6.0610046-3.6459961-10.3880005.7789917-16.3000183-2.673996-3.992981-2.3300018-5.8859863-14.3820038-16.9169922-11.3390045-5.8860016,1.625-7.6039886,9.897995-7.6039886,21.1959991,0,21.0449982,15.3079987,27.2720032,28.9569855,28.5540009,28.5890198,2.6820068,45.3250122-11.9360046,69.625-10.1999969,21.3040161,1.5209961,27.7619934,3.4400024,41.1410217,14.2299957-14.3340149-3.8619995-36.2140198-.8450012-49.901001,7.1609955-12.4150085,5.2799988-20.2600098-6.321991-33.434021-2.3329926-13.072998,3.9559937-9.6459961,10.6100006-19.125,13.6199951-7.4459839,2.3630066-13.9320068-4.5429993-23.1869812-1.9029999-9.5040131,2.7060089-10.3140106,8.355011-10.3140106,17.9349976,0,25.8210144,21.0279999,32.1499939,56.4539948,32.1499939,33.3250122,0,41.4160156-15.7669983,50.7200012-29.3779907,13.82901-20.2460022,36.4960022-20.6450043,52.3420105-12.4219971,5.6099854,2.9110107,21.6409912,16.9179993,25.3079834,33.9240112,2.052002,9.5179749,2.2890015,27.322998-13.321991,27.5749817h-48.7820129c1.4700012,7.8099976,3,24.3900146,3.3800049,38.1499939v81.3500061h-37.0599976v-81.3699951c.3800049-13.769989,1.8999939-30.3200073,3.3699951-38.1300049h-99.2299957c1.4700012,7.8200073,3.0100098,24.4500122,3.3900146,38.2200012v225.5700073c-.3800049,13.7700195-1.9200134,30.4000244-3.3900146,38.210022h99.2299957c-1.4700012-7.7900391-2.9899902-24.3600464-3.3699951-38.1199951v-80.960022h37.0599976v80.9400024c-.3800049,13.7600098-1.9100037,30.3499756-3.3800049,38.1400146h99.2200012c-1.4599915-7.7900391-2.9899902-24.3800049-3.3699951-38.1500244v-263.8500061h.0010071Z"/>
  <path class="st0" d="M211.4299927,372.0799866c-9.7399902-17.5499878-23.8299866-30.9199829-42.269989-40.1199951-18.4400024-9.2099915-40.5299988-13.8099976-66.2700043-13.8099976h-50.0299988c-18.5499992,0-16.2600021-22.3500061-9.6599998-29.4499817,7.2299995-7.7700195,38.8199959-27.2200012,51.7299995-24.0599976,5.0199966,1.2299805,5.8899994,10.0299988,9.909996,15.5299988,6.2200012,8.5599976,12.2400055,21.5299988,39.75,21.6499939,22.4000092.1099854,38.3300018.1799927,38.3300018.1799927l-.2700043-2.9400024c-.0999908-1.1799927-2.1100006-29.9500122-30.5699921-44.8399963-12.0200043-6.2799988-27.0600052-6.4499969-41.3100052-2.6800079,0,0,10.390007-8.2299957,16.390007-12.5099945,16.0899963-11.5,40.3000031-21.2099915,53.4100037-10.0099945,4.4399872,3.7899933,2.8299866,15.7799988,2.6899872,21.0599976-.25,9.9799957-.5800018,22.4000092,9.9400024,35.2599945,13.0200043,15.9200134,32.1800079,16.6600037,32.1800079,16.6600037,0,0-.0599976-11.9700012.0699921-16.0899963.5599976-18.2099915-.6999969-39.1600037-10.1399994-50.5500031-9.7099915-11.7200012-27.2599945-21.5299988-53.3399963-19.0599976-8.0800018.7599945-15.4100037,3.2799988-15.8600006,3.4400024,2.9499969-2.7400055,6.0699921-5.3600006,9.4700012-7.7700043,7.0399933-4.7900085,16.1499939-3.8399963,23.4499969-2.7700043,10.1900024,1.5100098,21.6300049,3.6900024,34.7599945-6.3799896,13.3899994-10.280014,11.5900116-26.6100006,11.5900116-26.6100006,0,0-9.9100037-3.8800049-20.8300018-3.3400116-11.0700073.5700073-20.6900024,2.4000092-27.6600037,7.9900055-7.0599976,5.6499939-12.5899963,12.3899994-20.1699982,19.6499939-1.6600037,1.5900116-5.7100067,4.730011-7.9799957,6.2600098-21.6900024,14.6699982-33.9500046,31.0500031-70.7300034,47.9899902-4.7600021,2.1999969-19.9900017,9.5200043-21.0700035,10.3499908.9500008-1.6499939,1.9300003-3.269989,2.920002-4.8899841,3.3499985-5.4700012,6.909996-10.8500061,11.2399979-15.6100006,4.6699982-5.1499939,9.8700027-9.9199982,14.7900009-14.8399963,4.1100006-4.1000061,8.1600037-8.2200012,13.6200027-10.5299988,6.3499985-2.6800079,13.1999969-3.9100037,19.6500015-6.3700104,18.5099945-7.0999908,24.6699982-26.6499939,28.6600037-37.9799957.5399933-1.4199982.8499908-2.3500061.8499908-2.3500061-12,1.2000122-29.5599976-4.3600006-43.2799988,4.8500061-11.8700027,7.9700012-15.2799988,20.6100006-17.9899979,33.8399963-1.6500015,8.0700073-9.9599991,14.5900116-16.9100037,18.25,1.7200012-7.6199951,4.7799988-16.8999939,6.0400009-24.2200012,4.8099976-27.7899933,8.4599991-51.4299927,28.5999985-64.6599884,4.75,8.2099915,10.090004,18.3899994,21.2300034,23.1299896,5.4600067,2.3099976,15.8000031.0200043,21.5399933-10.3099976,6.25-11.2700043,5.6100006-27.75,5.6800079-43.9000015,1.0599976,6.0600052,2.0299988,11.6600037,4.6300049,18.6500015,3.9799957,10.6600037,20.9799957,42.25,49.6100006,39.1600037,8.9199982-.9600067,16.8899994-5.7100067,16.9299927-15.1999969.0500031-10.8300018-2.2299957-19.6300049-3.0500031-25.5800018-1.5099945-10.9200058,5.5800018-16.1300049,2.5400085-26.8500061-4.2200012-14.8799973-22.4199982-17.6999969-40.1800079-17.7799988,6.1999969-1.1899948,21.3899994-4.7599945,30.9100037-13.3799973,4.6900024-4.25,11.5899963-10.3199997,10.2299957-28.8700027-.75-10.2699986-14.0200043-8.7499981-21.1399994-15.9299984-7.5599976-7.6299992-4.7299957-23.0599998-25.2299957-23.4199998-15.8600006-.27-19.1500092,1.52-24.3600006,10.9500005-6.1499939,11.1700001-7.1600037,25.25-7.4600067,38.2900009-2.9199982-10.9900017-5.6899872-21.960001-13.3699951-36.8300018C126.7600021-.5,114.8300018.12,107.3600006.01c-16.1600037-.28-16.2600021,8.8199999-21.3000031,11.7699997-8.1999969,4.8100004-13.4399948-.8800001-23.5199966,7.4800005-7.5100021,6.1999989-7.0200005,25.2199993,5.8300018,36.4800014,11.8899994,10.420002,25.9300003,14.8699989,44.1899948,16.9999962-13.0400009-.4799957-28.909996,2.3300018-39.2999954,12.6100006-9.1800003,9.0999985-7.1900024,18.4100037-4.0800018,23.7399979,7.25,12.4400024,20.7200012,15.4400024,28.1699982,21.3200073-3.6699982,2.7899933-8.9799957,8.4599915-15.9000015,17.9700012-3.7599945,5.1699982-7,10.7999878-9.3099976,15.1599884-1.2099991-13.9099884-5.7099991-27.1699982-11.0200005-39.9899902-4.7899971-11.6000061-13.3199997-22.8700027-9.8899994-35.9300003,2.8400002-10.9100037,4.4099998-21.2300034,3.7200012-35.420002C54.2900009,38.7200012,43.6399994.22,6.5999999.05l-3.2199998-.05s.0799999,23.5900002.04,32.3400002c-.2,42.1099968-.9000001,46.8200035,30.5199986,71.2700005,23.4500008,18.2399979,33.8999977,76.2299957,23.0400009,116.7100067-6.0099983,22.3899994-8.0900002,34.6199951-16.5200005,46.1000061.1000023-.3900146,1.7800026-6.9100037,1.9300003-19.1100159.1399994-10.2599945-1.8499985-17.7799988,5.8199997-31.4599915,10.920002-19.4600067,6.9900017-47.4700012-7.1399994-62.5500031-18.8299999-20.0700073-37.6899996-21.3700104-37.6899996-21.3700104v46.8300018c-.1100001,23.9100037,8.1999998,31.6600037,18.3200006,47.4600067,13.5200005,21.0899963-.1100006,43.9500122-5.9400005,53.8200073-6.6400003,11.2599792-12.3800001,19.269989-12.3800001,38.1099854h-.0100002v263.7799988c-.3699999,13.7800293-1.9099998,30.4000244-3.3699999,38.2200317h94.7900009c-1.4700012-7.8200073-3.0100021-24.4500122-3.3799973-38.2300415v-16.1300049c0-21.2399902,34.3699951-12.3699951,73.5800018-30.1999512,19.8999939-9.0500488,34.9599915-22.2900391,45.3999939-39.2600403,10.4300079-17.2599792,15.6499939-37.8199768,15.6499939-61.6999817,0-24.1600037-4.8699951-45.0100098-14.6100006-62.5500183ZM141.5500031,71.3700027c4.1799927-3.4900055,11.5200043-3.2200012,15.0099945,2.2699966,3.1600037,4.9400024,2.2100067,10.3700027-1.9700012,13.8600006-4.1799927,3.5-11.9499969,1.5100021-14.7200012-3.6399994-2.769989-5.1500015-2.5099945-8.9899979,1.6800079-12.4899979ZM91.4100037,487.25v-105.25h6.7799988c24.159996,0,39.4700012,12.0799866,39.4700012,52.6300049,0,40.5499878-26.3300018,46.6600037-46.25,52.6199951Z"/>
</svg>